<?xml version="1.0" encoding="UTF-8" standalone="no"?>
<!-- Uploaded to: SVG Repo, www.svgrepo.com, Generator: SVG Repo Mixer Tools -->
<svg width="800px" height="800px" viewBox="0 0 20 20" version="1.1" xmlns="http://www.w3.org/2000/svg" xmlns:xlink="http://www.w3.org/1999/xlink">
    
    <title>magnet [#674]</title>
    <desc>Created with Sketch.</desc>
    <defs>

</defs>
    <g id="Page-1" stroke="none" stroke-width="1" fill="none" fill-rule="evenodd">
        <g id="Dribbble-Light-Preview" transform="translate(-220.000000, -5199.000000)" fill="#000000">
            <g id="icons" transform="translate(56.000000, 160.000000)">
                <path d="M180.037,5043.27805 L182.037,5043.27805 L182.037,5041.32683 L180.037,5041.32683 L180.037,5043.27805 Z M182,5048.7561 C182,5059.4878 166,5059.4878 166,5048.7561 L166,5044.85366 L168,5044.85366 L168,5048.7561 C168,5056.56098 180,5056.56098 180,5048.7561 L180,5044.85366 L182,5044.85366 L182,5048.7561 Z M166.037,5043.27805 L168.037,5043.27805 L168.037,5041.32683 L166.037,5041.32683 L166.037,5043.27805 Z M182.037,5039 L180.037,5039 L178,5039 L178,5041.32683 L178,5043.27805 L178,5045.22927 L178,5048.7561 C178,5054.60976 170,5054.60976 170,5048.7561 L170,5045.22927 L170,5043.27805 L170,5041.32683 L170,5039 L168.037,5039 L166.037,5039 L164,5039 L164,5041.32683 L164,5043.27805 L164,5045.22927 L164,5048.7561 C164,5062.41463 184,5062.41463 184,5048.7561 L184,5045.22927 L184,5043.27805 L184,5041.32683 L184,5039 L182.037,5039 Z" id="magnet-[#674]">

</path>
            </g>
        </g>
    </g>
</svg>